<svg xmlns="http://www.w3.org/2000/svg" xmlns:xlink="http://www.w3.org/1999/xlink" version="1.1" xml:space="preserve" width="148" height="43"><rect id="backgroundrect" width="100%" height="100%" x="0" y="0" fill="none" stroke="none"/>
<style type="text/css">
	.st0{fill-rule:evenodd;clip-rule:evenodd;}
</style>


<g class="currentLayer"><title>Layer 1</title><g id="Layer_1" class="" fill="#dadada" fill-opacity="1">
	<g id="svg_1" fill="#dadada" fill-opacity="1">
		<path d="M143.2000244140625,43 h-138.5 c-2.6,0 -4.7,-2.1 -4.7,-4.7 v-33.6 c0,-2.6 2.1,-4.7 4.7,-4.7 h138.5 c2.6,0 4.7,2.1 4.7,4.7 l0,33.6 C147.9000244140625,40.89999999999998 145.8000244140625,43 143.2000244140625,43 zM4.600024414062489,1 c-2.1,0 -3.7,1.7000000000000002 -3.7,3.7 v33.6 c0,2 1.7000000000000002,3.7 3.7,3.7 h138.5 c2.1,0 3.7,-1.7000000000000002 3.7,-3.7 l0,-33.6 c0,-2.1 -1.7000000000000002,-3.7 -3.7,-3.7 H4.600024414062489 z" id="svg_2" fill="#dadada" fill-opacity="1"/>
	</g>
</g><g id="Layer_2" class="" fill="#dadada" fill-opacity="1">
	<g id="svg_3" fill="#dadada" fill-opacity="1">
		<path class="st0" d="M36.00002441406252,15.899999999999977 c-1.7000000000000002,-2.4 -4.2,-2.8 -5.1,-2.8 c-2.2,-0.2 -4.2,1.3 -5.3,1.3 c-1.1,0 -2.8,-1.3 -4.6,-1.2 c-2.3,0 -4.5,1.4 -5.7,3.5 c-2.5,4.3 -0.6000000000000001,10.7 1.7000000000000002,14.1 c1.2,1.7000000000000002 2.6,3.6 4.4,3.5 c1.8,-0.1 2.4,-1.1 4.6,-1.1 c2.1,0 2.8,1.1 4.6,1.1 c1.9,0 3.1,-1.7000000000000002 4.3,-3.4 c1.4,-2 1.9,-3.9 2,-4 c0,0 -3.7,-1.4 -3.7,-5.7 C32.9000244140625,17.700000000000045 35.9000244140625,16 36.00002441406252,15.899999999999977 z" id="svg_4" fill="#dadada" fill-opacity="1"/>
		<path class="st0" d="M29.500024414062523,10.799999999999955 c1,-1.2 1.6,-2.8 1.4,-4.5 c-1.4,0.1 -3.1,1 -4.1,2.1 c-0.9,1 -1.7000000000000002,2.7 -1.5,4.3 C26.9000244140625,12.899999999999977 28.500024414062523,12 29.500024414062523,10.799999999999955 z" id="svg_5" fill="#dadada" fill-opacity="1"/>
		<path class="st0" d="M54.9000244140625,29.899999999999977 l1.4,4.3 h2.5 l-4.7,-14.6 h-2.9 l-4.7,14.6 h2.4 l1.3,-4.3 H54.9000244140625 zM51.80002441406248,24.200000000000045 c0.30000000000000004,-1.2 0.5,-2.1 0.7000000000000001,-2.8 h0 c0.4,1.4 0.6000000000000001,2.4 0.7000000000000001,2.8 l1.2,3.8 h-3.9 L51.80002441406248,24.200000000000045 z" id="svg_6" fill="#dadada" fill-opacity="1"/>
		<path class="st0" d="M63.10002441406249,38.5 v-5.6 h0 c0.6000000000000001,1 1.6,1.5 3,1.5 c1.3,0 2.4,-0.5 3.2,-1.4 c1,-1 1.5,-2.5 1.5,-4.3 c0,-1.6 -0.4,-2.9 -1.2,-3.9 c-0.8,-1 -1.9,-1.5 -3.1,-1.5 c-1.6,0 -2.8,0.6000000000000001 -3.5,1.9 h0 l-0.1,-1.7000000000000002 h-2.1 c0.1,1.2 0.1,2.3 0.1,3.5 V38.5 H63.10002441406249 zM63.10002441406249,28.100000000000023 c0,-0.2 0,-0.4 0.1,-0.7000000000000001 c0.1,-0.6000000000000001 0.5,-1.1 0.9,-1.5 c0.5,-0.4 1,-0.6000000000000001 1.6,-0.6000000000000001 c0.9,0 1.5,0.30000000000000004 2,1 c0.5,0.7000000000000001 0.7000000000000001,1.5 0.7000000000000001,2.5 c0,1.1 -0.2,2 -0.7000000000000001,2.7 c-0.5,0.7000000000000001 -1.2,1 -2.1,1 c-0.7000000000000001,0 -1.4,-0.30000000000000004 -1.8,-0.8 c-0.5,-0.5 -0.7000000000000001,-1.2 -0.7000000000000001,-1.9 V28.100000000000023 z" id="svg_7" fill="#dadada" fill-opacity="1"/>
		<path class="st0" d="M75.20002441406251,38.5 v-5.6 h0 c0.6000000000000001,1 1.6,1.5 3,1.5 c1.3,0 2.4,-0.5 3.2,-1.4 c1,-1 1.5,-2.5 1.5,-4.3 c0,-1.6 -0.4,-2.9 -1.2,-3.9 c-0.8,-1 -1.9,-1.5 -3.1,-1.5 c-1.6,0 -2.8,0.6000000000000001 -3.5,1.9 h0 l-0.1,-1.7000000000000002 h-2.1 c0.1,1.2 0.1,2.3 0.1,3.5 V38.5 H75.20002441406251 zM75.20002441406251,28.100000000000023 c0,-0.2 0,-0.4 0.1,-0.7000000000000001 c0.1,-0.6000000000000001 0.4,-1.1 0.9,-1.5 c0.5,-0.4 1,-0.6000000000000001 1.6,-0.6000000000000001 c0.9,0 1.5,0.30000000000000004 2,1 c0.5,0.7000000000000001 0.7000000000000001,1.5 0.7000000000000001,2.5 c0,1.1 -0.2,2 -0.7000000000000001,2.7 c-0.5,0.7000000000000001 -1.2,1 -2.1,1 c-0.8,0 -1.4,-0.30000000000000004 -1.8,-0.8 c-0.5,-0.5 -0.7000000000000001,-1.2 -0.7000000000000001,-1.9 V28.100000000000023 z" id="svg_8" fill="#dadada" fill-opacity="1"/>
		<path class="st0" d="M91.3000244140625,32.39999999999998 c-1.2,0 -2.4,-0.30000000000000004 -3.4,-0.9 l-0.5,2 c1,0.6000000000000001 2.2,0.9 3.8,0.9 c1.7000000000000002,0 3,-0.4 4,-1.3 c0.9,-0.8 1.3,-1.8 1.3,-3 c0,-1 -0.30000000000000004,-1.9 -0.9,-2.5 c-0.6000000000000001,-0.7000000000000001 -1.5,-1.3 -2.8,-1.8 c-1,-0.4 -1.7000000000000002,-0.8 -2.1,-1.1 c-0.4,-0.4 -0.7000000000000001,-0.9 -0.7000000000000001,-1.4 c0,-0.5 0.2,-1 0.6000000000000001,-1.3 c0.5,-0.4 1.1,-0.6000000000000001 1.9,-0.6000000000000001 c1,0 2,0.2 2.8,0.7000000000000001 l0.6000000000000001,-1.9 c-0.9,-0.5 -2,-0.7000000000000001 -3.3,-0.7000000000000001 c-1.5,0 -2.7,0.4 -3.6,1.2 c-0.9,0.8 -1.3,1.8 -1.3,3 c0,1.8 1.3,3.2 3.8,4.2 c0.9,0.30000000000000004 1.6,0.7000000000000001 2,1.1 c0.4,0.4 0.6000000000000001,0.9 0.6000000000000001,1.5 c0,0.7000000000000001 -0.2,1.2 -0.7000000000000001,1.6 C92.9000244140625,32.200000000000045 92.20002441406251,32.39999999999998 91.3000244140625,32.39999999999998 z" id="svg_9" fill="#dadada" fill-opacity="1"/>
		<path class="st0" d="M99.3000244140625,21.700000000000045 v1.9 h-1.5 v1.8 h1.5 v5.3 c0,1.3 0.30000000000000004,2.3 0.8,2.8 c0.5,0.6000000000000001 1.2,0.8 2.2,0.8 c0.8,0 1.4,-0.1 1.8,-0.30000000000000004 l-0.1,-1.8 c-0.30000000000000004,0.1 -0.6000000000000001,0.1 -1,0.1 c-0.9,0 -1.4,-0.7000000000000001 -1.4,-2 v-5.1 h2.6 v-1.8 h-2.6 v-2.6 L99.3000244140625,21.700000000000045 z" id="svg_10" fill="#dadada" fill-opacity="1"/>
		<path class="st0" d="M114.4000244140625,32.799999999999955 c0.9,-1 1.4,-2.4 1.4,-4 c0,-1.6 -0.4,-2.9 -1.3,-3.9 c-0.9,-1 -2.2,-1.5 -3.7,-1.5 c-1.6,0 -2.9,0.5 -3.8,1.6 c-0.9,1 -1.4,2.4 -1.4,4 c0,1.6 0.5,2.9 1.4,3.9 c0.9,1 2.1,1.5 3.7,1.5 C112.20002441406251,34.39999999999998 113.5000244140625,33.89999999999998 114.4000244140625,32.799999999999955 zM108.5000244140625,31.399999999999977 c-0.4,-0.7000000000000001 -0.6000000000000001,-1.5 -0.6000000000000001,-2.5 c0,-1 0.2,-1.9 0.6000000000000001,-2.5 c0.5,-0.8 1.2,-1.3 2.1,-1.3 c0.9,0 1.6,0.4 2.1,1.3 c0.4,0.7000000000000001 0.6000000000000001,1.5 0.6000000000000001,2.5 c0,1 -0.2,1.8 -0.6000000000000001,2.5 c-0.5,0.9 -1.2,1.3 -2.1,1.3 C109.70002441406251,32.700000000000045 109.0000244140625,32.299999999999955 108.5000244140625,31.399999999999977 z" id="svg_11" fill="#dadada" fill-opacity="1"/>
		<path class="st0" d="M120.20002441406251,34.200000000000045 v-5.5 c0,-0.8 0.2,-1.5 0.6000000000000001,-2.1 c0.4,-0.6000000000000001 1.1,-0.9 1.9,-0.9 c0.30000000000000004,0 0.5,0 0.7000000000000001,0.1 v-2.2 c-0.2,0 -0.4,0 -0.6000000000000001,0 c-0.6000000000000001,0 -1.2,0.2 -1.7000000000000002,0.6000000000000001 c-0.5,0.4 -0.9,1 -1.2,1.7000000000000002 h-0.1 l-0.1,-2 h-2 c0.1,1 0.1,2.1 0.1,3.3 l0,7.2 H120.20002441406251 z" id="svg_12" fill="#dadada" fill-opacity="1"/>
		<path class="st0" d="M133.9000244140625,28.399999999999977 c0,-1.3 -0.30000000000000004,-2.4 -0.9,-3.3 c-0.8,-1.1 -1.9,-1.7000000000000002 -3.4,-1.7000000000000002 c-1.5,0 -2.8,0.6000000000000001 -3.7,1.7000000000000002 c-0.9,1.1 -1.3,2.4 -1.3,4 c0,1.6 0.5,2.9 1.4,3.9 c0.9,1 2.2,1.4 3.8,1.4 c1.4,0 2.5,-0.2 3.5,-0.7000000000000001 l-0.4,-1.6 c-0.9,0.30000000000000004 -1.8,0.5 -2.8,0.5 c-0.9,0 -1.7000000000000002,-0.2 -2.3,-0.7000000000000001 c-0.7000000000000001,-0.5 -1,-1.3 -1,-2.4 h7 C133.8000244140625,29.200000000000045 133.9000244140625,28.799999999999955 133.9000244140625,28.399999999999977 zM131.6000244140625,27.799999999999955 C131.6000244140625,27.799999999999955 131.6000244140625,27.799999999999955 131.6000244140625,27.799999999999955 l-4.9,0 c0.1,-0.7000000000000001 0.30000000000000004,-1.3 0.7000000000000001,-1.8 c0.5,-0.6000000000000001 1.1,-1 1.9,-1 c0.8,0 1.5,0.30000000000000004 1.9,1 C131.5000244140625,26.5 131.6000244140625,27.100000000000023 131.6000244140625,27.799999999999955 L131.6000244140625,27.799999999999955 L131.6000244140625,27.799999999999955 z" id="svg_13" fill="#dadada" fill-opacity="1"/>
		<path class="st0" d="M53.70002441406251,10.5 c0,-1.2 -0.4,-2 -1.1,-2.7 c-0.6000000000000001,-0.5 -1.6,-0.8 -2.8,-0.8 c-0.7000000000000001,0 -1.4,0.1 -2,0.1 v7.1 c0.5,0.1 1,0.1 1.7000000000000002,0.1 c1.3,0 2.3,-0.30000000000000004 3.1,-0.9 C53.30002441406248,12.799999999999955 53.70002441406251,11.799999999999955 53.70002441406251,10.5 zM51.80002441406248,12.700000000000045 c-0.5,0.5 -1.2,0.7000000000000001 -2,0.7000000000000001 c-0.4,0 -0.6000000000000001,0 -0.8,0 v-5.4 c0.30000000000000004,-0.1 0.6000000000000001,-0.1 0.9,-0.1 c0.9,0 1.5,0.2 1.9,0.7000000000000001 c0.4,0.4 0.7000000000000001,1.1 0.7000000000000001,1.9 C52.50002441406252,11.5 52.30002441406248,12.200000000000045 51.80002441406248,12.700000000000045 z" id="svg_14" fill="#dadada" fill-opacity="1"/>
		<path class="st0" d="M59.50002441406252,13.600000000000023 c0.5,-0.5 0.7000000000000001,-1.2 0.7000000000000001,-2 c0,-0.8 -0.2,-1.4 -0.7000000000000001,-1.9 c-0.5,-0.5 -1.1,-0.8 -1.8,-0.8 c-0.8,0 -1.4,0.30000000000000004 -1.9,0.8 c-0.5,0.5 -0.7000000000000001,1.2 -0.7000000000000001,2 c0,0.8 0.2,1.4 0.7000000000000001,1.9 c0.5,0.5 1.1,0.8 1.8,0.8 C58.4000244140625,14.399999999999977 59.00002441406252,14.100000000000023 59.50002441406252,13.600000000000023 zM56.60002441406249,12.899999999999977 c-0.2,-0.30000000000000004 -0.30000000000000004,-0.8 -0.30000000000000004,-1.2 c0,-0.5 0.1,-0.9 0.30000000000000004,-1.3 c0.2,-0.4 0.6000000000000001,-0.6000000000000001 1.1,-0.6000000000000001 c0.4,0 0.8,0.2 1,0.6000000000000001 c0.2,0.30000000000000004 0.30000000000000004,0.8 0.30000000000000004,1.2 s-0.1,0.9 -0.30000000000000004,1.2 c-0.2,0.4 -0.6000000000000001,0.6000000000000001 -1,0.6000000000000001 C57.20002441406251,13.600000000000023 56.80002441406248,13.399999999999977 56.60002441406249,12.899999999999977 z" id="svg_15" fill="#dadada" fill-opacity="1"/>
		<g id="svg_16" fill="#dadada" fill-opacity="1">
			<polygon class="st0" points="68.80001831054688,9.0999755859375 68.80001831054688,9.0999755859375 68.80001831054688,9.0999755859375 " id="svg_17" fill="#dadada" fill-opacity="1"/>
			<path class="st0" d="M64.60002441406249,12 c0.2,-0.5 0.30000000000000004,-1.1 0.4,-1.7000000000000002 h0 c0.1,0.6000000000000001 0.2,1.1 0.4,1.7000000000000002 l0.7000000000000001,2.3 h1.1 l1.6,-5.2 h-1.1 l-0.6000000000000001,2.4 c-0.2,0.6000000000000001 -0.30000000000000004,1.2 -0.4,1.7000000000000002 h0 c-0.1,-0.5 -0.2,-1.1 -0.4,-1.7000000000000002 l-0.7000000000000001,-2.4 h-0.9 l-0.7000000000000001,2.5 c-0.2,0.7000000000000001 -0.30000000000000004,1.2 -0.4,1.7000000000000002 h0 c-0.1,-0.5 -0.2,-1.1 -0.4,-1.7000000000000002 l-0.6000000000000001,-2.5 h-1.2 l1.5,5.2 h1.1 L64.60002441406249,12 z" id="svg_18" fill="#dadada" fill-opacity="1"/>
		</g>
		<path class="st0" d="M74.70002441406251,14.299999999999955 v-3.1 c0,-0.8 -0.2,-1.3 -0.6000000000000001,-1.7000000000000002 c-0.30000000000000004,-0.30000000000000004 -0.7000000000000001,-0.5 -1.2,-0.5 c-0.4,0 -0.7000000000000001,0.1 -1,0.30000000000000004 c-0.30000000000000004,0.2 -0.5,0.4 -0.6000000000000001,0.6000000000000001 h0 l-0.1,-0.8 h-1 c0,0.5 0,1 0,1.5 v3.7 h1.1 v-3.1 c0,-0.30000000000000004 0.1,-0.6000000000000001 0.30000000000000004,-0.9 c0.2,-0.30000000000000004 0.5,-0.4 0.8,-0.4 c0.7000000000000001,0 1,0.5 1,1.4 v3 H74.70002441406251 z" id="svg_19" fill="#dadada" fill-opacity="1"/>
		<rect x="76.70002746582031" y="6.70001220703125" class="st0" width="1.100000023841858" height="7.599999904632568" id="svg_20" fill="#dadada" fill-opacity="1"/>
		<path class="st0" d="M84.0000244140625,13.600000000000023 c0.5,-0.5 0.7000000000000001,-1.2 0.7000000000000001,-2 c0,-0.8 -0.2,-1.4 -0.7000000000000001,-1.9 c-0.5,-0.5 -1.1,-0.8 -1.8,-0.8 c-0.8,0 -1.4,0.30000000000000004 -1.9,0.8 c-0.5,0.5 -0.7000000000000001,1.2 -0.7000000000000001,2 c0,0.8 0.2,1.4 0.7000000000000001,1.9 c0.4,0.5 1.1,0.8 1.8,0.8 C82.9000244140625,14.399999999999977 83.5000244140625,14.100000000000023 84.0000244140625,13.600000000000023 zM81.10002441406249,12.899999999999977 c-0.2,-0.30000000000000004 -0.30000000000000004,-0.8 -0.30000000000000004,-1.2 c0,-0.5 0.1,-0.9 0.30000000000000004,-1.3 c0.2,-0.4 0.6000000000000001,-0.6000000000000001 1.1,-0.6000000000000001 c0.4,0 0.8,0.2 1,0.6000000000000001 c0.2,0.30000000000000004 0.30000000000000004,0.8 0.30000000000000004,1.2 s-0.1,0.9 -0.30000000000000004,1.2 c-0.2,0.4 -0.6000000000000001,0.6000000000000001 -1,0.6000000000000001 C81.70002441406251,13.600000000000023 81.3000244140625,13.399999999999977 81.10002441406249,12.899999999999977 z" id="svg_21" fill="#dadada" fill-opacity="1"/>
		<path class="st0" d="M86.8000244140625,11.399999999999977 c-0.5,0.30000000000000004 -0.8,0.8 -0.8,1.5 c0,0.4 0.1,0.8 0.4,1.1 c0.30000000000000004,0.30000000000000004 0.7000000000000001,0.5 1.2,0.5 c0.7000000000000001,0 1.2,-0.2 1.5,-0.7000000000000001 h0 l0.1,0.6000000000000001 h1 c0,-0.30000000000000004 -0.1,-0.7000000000000001 -0.1,-1.2 v-1.9 c0,-1.4 -0.7000000000000001,-2.1 -2,-2.1 c-0.7000000000000001,0 -1.3,0.1 -1.8,0.4 l0.2,0.8 c0.4,-0.30000000000000004 0.8,-0.4 1.3,-0.4 c0.7000000000000001,0 1.1,0.30000000000000004 1.1,1 v0.1 C88.0000244140625,10.899999999999977 87.3000244140625,11.100000000000023 86.8000244140625,11.399999999999977 zM89.0000244140625,11.700000000000045 v0.8 c0,0.1 0,0.1 0,0.2 c0,0.2 -0.2,0.5 -0.4,0.6000000000000001 c-0.2,0.2 -0.5,0.2 -0.7000000000000001,0.2 c-0.2,0 -0.4,-0.1 -0.6000000000000001,-0.2 c-0.1,-0.1 -0.2,-0.30000000000000004 -0.2,-0.6000000000000001 C87.10002441406249,12 87.70002441406251,11.700000000000045 89.0000244140625,11.700000000000045 z" id="svg_22" fill="#dadada" fill-opacity="1"/>
		<path class="st0" d="M95.5000244140625,6.7000000000000455 v3 h0 c-0.30000000000000004,-0.5 -0.8,-0.7000000000000001 -1.5,-0.7000000000000001 c-0.6000000000000001,0 -1.2,0.2 -1.6,0.7000000000000001 c-0.4,0.5 -0.7000000000000001,1.2 -0.7000000000000001,2 c0,0.8 0.2,1.4 0.6000000000000001,1.9 s0.9,0.7000000000000001 1.6,0.7000000000000001 c0.8,0 1.3,-0.30000000000000004 1.7000000000000002,-1 h0 l0.1,0.8 h1 c0,-0.4 0,-0.9 0,-1.4 v-6.2 H95.5000244140625 zM95.5000244140625,12.100000000000023 c0,0.4 -0.1,0.7000000000000001 -0.30000000000000004,0.9 c-0.2,0.30000000000000004 -0.5,0.4 -0.9,0.4 c-0.4,0 -0.8,-0.2 -1,-0.5 c-0.2,-0.30000000000000004 -0.4,-0.7000000000000001 -0.4,-1.2 c0,-0.5 0.1,-1 0.4,-1.3 c0.2,-0.30000000000000004 0.6000000000000001,-0.5 1,-0.5 c0.30000000000000004,0 0.6000000000000001,0.1 0.8,0.30000000000000004 c0.2,0.2 0.4,0.4 0.4,0.7000000000000001 c0,0.1 0,0.2 0,0.4 V12.100000000000023 z" id="svg_23" fill="#dadada" fill-opacity="1"/>
		<path class="st0" d="M105.9000244140625,13.600000000000023 c0.5,-0.5 0.7000000000000001,-1.2 0.7000000000000001,-2 c0,-0.8 -0.2,-1.4 -0.7000000000000001,-1.9 c-0.5,-0.5 -1.1,-0.8 -1.8,-0.8 c-0.8,0 -1.4,0.30000000000000004 -1.9,0.8 c-0.5,0.5 -0.7000000000000001,1.2 -0.7000000000000001,2 c0,0.8 0.2,1.4 0.7000000000000001,1.9 c0.5,0.5 1.1,0.8 1.8,0.8 C104.8000244140625,14.399999999999977 105.4000244140625,14.100000000000023 105.9000244140625,13.600000000000023 zM103.0000244140625,12.899999999999977 c-0.2,-0.30000000000000004 -0.30000000000000004,-0.8 -0.30000000000000004,-1.2 c0,-0.5 0.1,-0.9 0.30000000000000004,-1.3 c0.2,-0.4 0.6000000000000001,-0.6000000000000001 1.1,-0.6000000000000001 c0.4,0 0.8,0.2 1,0.6000000000000001 c0.2,0.30000000000000004 0.30000000000000004,0.8 0.30000000000000004,1.2 s-0.1,0.9 -0.30000000000000004,1.2 c-0.2,0.4 -0.6000000000000001,0.6000000000000001 -1,0.6000000000000001 C103.60002441406249,13.600000000000023 103.20002441406251,13.399999999999977 103.0000244140625,12.899999999999977 z" id="svg_24" fill="#dadada" fill-opacity="1"/>
		<path class="st0" d="M112.70002441406251,14.299999999999955 v-3.1 c0,-0.8 -0.2,-1.3 -0.6000000000000001,-1.7000000000000002 c-0.30000000000000004,-0.30000000000000004 -0.7000000000000001,-0.5 -1.2,-0.5 c-0.4,0 -0.7000000000000001,0.1 -1,0.30000000000000004 c-0.30000000000000004,0.2 -0.5,0.4 -0.6000000000000001,0.6000000000000001 h0 l-0.1,-0.8 h-1 c0,0.5 0,1 0,1.5 v3.7 h1.2 v-3.1 c0,-0.30000000000000004 0.1,-0.6000000000000001 0.30000000000000004,-0.9 c0.2,-0.30000000000000004 0.5,-0.4 0.8,-0.4 c0.7000000000000001,0 1,0.5 1,1.4 v3 H112.70002441406251 z" id="svg_25" fill="#dadada" fill-opacity="1"/>
		<path class="st0" d="M118.10002441406249,8.100000000000023 v1 h-0.8 v0.9 h0.8 v2.6 c0,0.7000000000000001 0.1,1.1 0.4,1.4 c0.30000000000000004,0.30000000000000004 0.6000000000000001,0.4 1.1,0.4 c0.4,0 0.7000000000000001,0 0.9,-0.1 l0,-0.9 c-0.1,0 -0.30000000000000004,0.1 -0.5,0.1 c-0.4,0 -0.7000000000000001,-0.30000000000000004 -0.7000000000000001,-1 v-2.5 h1.3 v-0.9 h-1.3 v-1.3 L118.10002441406249,8.100000000000023 z" id="svg_26" fill="#dadada" fill-opacity="1"/>
		<path class="st0" d="M122.10002441406249,6.7000000000000455 v7.6 h1.1 v-3.1 c0,-0.2 0,-0.30000000000000004 0.1,-0.4 c0.2,-0.5 0.6000000000000001,-0.8 1.1,-0.8 c0.7000000000000001,0 1,0.5 1,1.4 v2.9 h1.1 v-3.1 c0,-0.8 -0.2,-1.3 -0.6000000000000001,-1.7000000000000002 c-0.30000000000000004,-0.30000000000000004 -0.7000000000000001,-0.5 -1.2,-0.5 c-0.7000000000000001,0 -1.2,0.30000000000000004 -1.6,0.9 h0 v-3.1 H122.10002441406249 z" id="svg_27" fill="#dadada" fill-opacity="1"/>
		<path class="st0" d="M130.7000244140625,9 c-0.8,0 -1.4,0.30000000000000004 -1.8,0.8 c-0.4,0.5 -0.6000000000000001,1.2 -0.6000000000000001,2 c0,0.8 0.2,1.4 0.7000000000000001,1.9 c0.5,0.5 1.1,0.7000000000000001 1.9,0.7000000000000001 c0.7000000000000001,0 1.2,-0.1 1.7000000000000002,-0.30000000000000004 l-0.2,-0.8 c-0.4,0.2 -0.9,0.2 -1.4,0.2 c-0.5,0 -0.8,-0.1 -1.1,-0.4 c-0.30000000000000004,-0.30000000000000004 -0.5,-0.7000000000000001 -0.5,-1.2 h3.4 c0,-0.1 0,-0.30000000000000004 0,-0.5 c0,-0.6000000000000001 -0.2,-1.2 -0.5,-1.6 C132.0000244140625,9.299999999999955 131.4000244140625,9 130.7000244140625,9 zM129.3000244140625,11.100000000000023 c0,-0.30000000000000004 0.2,-0.6000000000000001 0.30000000000000004,-0.9 c0.2,-0.30000000000000004 0.5,-0.5 0.9,-0.5 c0.4,0 0.7000000000000001,0.2 0.9,0.5 c0.2,0.2 0.2,0.5 0.2,0.9 H129.3000244140625 z" id="svg_28" fill="#dadada" fill-opacity="1"/>
	</g>
</g></g></svg>